<?xml version="1.0" encoding="UTF-8"?>
<svg fill="none" xmlns="http://www.w3.org/2000/svg" viewBox="0 0 32 32">
  <path fill="#f5f7fb"
    d="M 4.4441964,0 C 1.9819735,0 0,1.9154356 0,4.294998 L 0,27.703924 C 0,30.083486 1.9819735,32 4.4441964,32 L 27.555803,32 C 30.018026,32 32,30.083486 32,27.703924 L 32,4.294998 C 32,1.9154356 30.018026,0 27.555803,0 L 4.4441964,0 Z m 0.9229911,1.8713766 21.2645095,0 c 1.925665,0 3.476562,1.4977519 3.476562,3.3587704 l 0,21.538628 c 0,1.861018 -1.550897,3.359848 -3.476562,3.359848 l -21.2645095,0 c -1.925666,0 -3.4754464,-1.49883 -3.4754464,-3.359848 l 0,-21.538628 c 0,-1.8610185 1.5497804,-3.3587704 3.4754464,-3.3587704 z"/>
  <path fill="#ffffff"
    d="m 12.159486,17.727904 c 1.218171,0 2.205771,-0.952788 2.205771,-2.128131 0,-1.175343 -0.9876,-2.128076 -2.205771,-2.128076 -1.218229,0 -2.2058289,0.952733 -2.2058289,2.128076 0,1.175343 0.9875999,2.128131 2.2058289,2.128131 z"/>
  <path fill="#ffffff"
    d="m 12.159486,10.933414 c 1.218171,0 2.205771,-0.9525668 2.205771,-2.1275782 0,-1.1750114 -0.9876,-2.1275233 -2.205771,-2.1275233 -1.218229,0 -2.2058289,0.9525119 -2.2058289,2.1275233 0,1.1750114 0.9875999,2.1275782 2.2058289,2.1275782 z"/>
  <path fill="#ffffff"
    d="m 19.483657,20.26199 c 1.218229,0 2.205772,0.948535 2.205772,2.128075 0,1.171477 -0.987258,2.12421 -2.205772,2.12421 -1.218171,0 -2.2052,-0.952733 -2.2052,-2.12421 0,-1.17954 0.987314,-2.128075 2.2052,-2.128075 z"/>
  <path fill="#17bebb"
    d="m 19.483657,17.727904 c 1.218229,0 2.205772,-0.952788 2.205772,-2.128131 0,-1.175343 -0.987543,-2.128076 -2.205772,-2.128076 -1.218171,0 -2.205771,0.952733 -2.205771,2.128076 0,1.175343 0.9876,2.128131 2.205771,2.128131 z"/>
</svg>
