<?xml version="1.0" encoding="UTF-8"?>
<svg fill="none" xmlns="http://www.w3.org/2000/svg" viewBox="0 0 86 32">
    <path fill="#ffffff"
       d="m 64.54514,19.05143 -8.66998,0 c -1.00816,0 -1.51202,-0.40597 -1.51202,-1.24222 l 0,-0.6678 c 0,-0.35885 0.15122,-0.64563 0.47955,-0.90789 0.32721,-0.23881 0.65508,-0.35885 1.03247,-0.35885 l 10.20653,0 0,1.93454 c 0,0.83625 -0.50431,1.24222 -1.53655,1.24222 M 67.5181,8.76016 C 66.66161,8.02007 65.6782,7.66122 64.54514,7.66122 l -12.70196,0 0,2.48338 12.70196,0 c 0.37694,0 0.73002,0.11961 1.05812,0.38272 0.3272,0.26248 0.47843,0.54862 0.47843,0.88337 l 0,1.98082 -10.20653,0 c -1.10898,0 -2.09104,0.35863 -2.97363,1.09893 -0.88259,0.71621 -1.31039,1.59958 -1.31039,2.65097 l 0,0.6678 c 0,1.09958 0.4278,2.00533 1.26021,2.69851 0.83083,0.69254 1.84012,1.05054 3.02381,1.05054 l 12.95355,0 0,-3.74905 0,-6.39852 c 0,-1.02686 -0.42802,-1.91023 -1.31061,-2.65053" />
    <path fill="#ffffff"
       d="m 36.92851,10.14451 8.69473,0 c 1.00772,0 1.51202,0.43092 1.51202,1.2661 l 0,0.66823 c 0,0.33412 -0.17687,0.62068 -0.5043,0.88401 -0.32811,0.23838 -0.65621,0.35714 -1.00772,0.35714 l -10.20765,0 0,-1.90938 c 0,-0.83518 0.50386,-1.2661 1.51292,-1.2661 m 8.69473,5.68231 c 1.10741,0 2.09082,-0.35714 2.97296,-1.09702 0.88169,-0.74094 1.31084,-1.62473 1.31084,-2.65096 l 0,-0.66823 c 0,-1.12282 -0.42915,-2.03028 -1.25976,-2.72197 -0.83263,-0.66844 -1.84034,-1.0275 -3.02404,-1.0275 l -8.69473,0 c -1.18437,0 -2.19276,0.35906 -3.02336,1.05139 -0.83241,0.69232 -1.26156,1.57526 -1.26156,2.69808 l 0,6.37527 c 0,1.05054 0.42915,1.93434 1.31039,2.674 0.88259,0.71641 1.86488,1.07462 2.97453,1.07462 l 12.72649,0 0,-2.48316 -12.72649,0 c -0.37851,0 -0.70616,-0.1194 -1.03314,-0.38187 -0.32743,-0.23966 -0.47978,-0.52602 -0.47978,-0.88359 l 0,-1.95906 10.20765,0 z" />
    <path fill="#ffffff"
       d="m 83.25591,17.83708 c 0,0.83838 -0.49936,1.24563 -1.49739,1.24563 l -8.35336,0 0,-8.93157 8.35336,0 c 0.37491,0 0.69941,0.12026 1.02369,0.38444 0.32383,0.26247 0.4737,0.54968 0.4737,0.88507 l 0,6.41643 z m 1.44653,-9.074 C 83.82953,8.02086 82.85737,7.66116 81.75852,7.66116 l -11.07382,0 0,24.33884 2.72046,0 0,-10.40343 8.35336,0 c 1.17266,0 2.19568,-0.35885 3.01976,-1.05352 C 85.60034,19.84838 86,18.93964 86,17.83708 l 0,-6.41643 C 86,10.39123 85.57626,9.5053 84.70244,8.76308" />
    <path fill="#ffffff"
       d="M 15.50411,0 C 6.94147,0 0,6.57698 0,14.69 c 0,8.11302 6.94147,14.69 15.50411,14.69 8.56264,0 15.50411,-6.57698 15.50411,-14.69 C 31.00822,6.57698 24.06675,0 15.50411,0" />
    <path fill="#17bebb"
       d="m 24.08835,21.82788 -12.28992,0 c -1.34099,0 -2.48485,-0.40576 -3.42618,-1.19041 C 7.42913,19.85197 6.9444,18.82553 6.9444,17.57969 l 0,-9.80492 3.14106,0 0,9.67997 c 0,0.94776 0.57091,1.40746 1.71297,1.40746 l 12.28992,0 0,2.96568 z" />
    <path fill="#ffffff"
       d="m 64.54513,19.05144 -8.66998,0 c -1.00816,0 -1.51202,-0.40597 -1.51202,-1.24222 l 0,-0.6678 c 0,-0.35885 0.15122,-0.64563 0.47955,-0.90789 0.32721,-0.23881 0.65508,-0.35885 1.03247,-0.35885 l 10.20653,0 0,1.93454 c 0,0.83625 -0.50431,1.24222 -1.53655,1.24222 M 67.51809,8.76017 C 66.6616,8.02008 65.67819,7.66123 64.54513,7.66123 l -12.70196,0 0,2.48338 12.70196,0 c 0.37694,0 0.73002,0.11961 1.05812,0.38272 0.3272,0.26248 0.47843,0.54862 0.47843,0.88337 l 0,1.98082 -10.20653,0 c -1.10898,0 -2.09104,0.35863 -2.97363,1.09893 -0.88259,0.71621 -1.31039,1.59958 -1.31039,2.65097 l 0,0.6678 c 0,1.09958 0.4278,2.00533 1.26021,2.69851 0.83083,0.69254 1.84012,1.05054 3.02381,1.05054 l 12.95355,0 0,-3.74905 0,-6.39852 c 0,-1.02686 -0.42802,-1.91023 -1.31061,-2.65053"/>
    <path fill="#ffffff"
       d="m 36.9285,10.14451 8.69473,0 c 1.00772,0 1.51202,0.43092 1.51202,1.2661 l 0,0.66823 c 0,0.33412 -0.17687,0.62068 -0.5043,0.88401 -0.32811,0.23838 -0.65621,0.35714 -1.00772,0.35714 l -10.20765,0 0,-1.90938 c 0,-0.83518 0.50386,-1.2661 1.51292,-1.2661 m 8.69473,5.68231 c 1.10741,0 2.09082,-0.35714 2.97296,-1.09702 0.88169,-0.74094 1.31084,-1.62473 1.31084,-2.65096 l 0,-0.66823 c 0,-1.12282 -0.42915,-2.03028 -1.25976,-2.72197 -0.83263,-0.66844 -1.84034,-1.0275 -3.02404,-1.0275 l -8.69473,0 c -1.18437,0 -2.19276,0.35906 -3.02336,1.05139 -0.83241,0.69232 -1.26156,1.57526 -1.26156,2.69808 l 0,6.37527 c 0,1.05054 0.42915,1.93434 1.31039,2.674 0.88259,0.71641 1.86488,1.07462 2.97453,1.07462 l 12.72649,0 0,-2.48316 -12.72649,0 c -0.37851,0 -0.70616,-0.1194 -1.03314,-0.38187 -0.32743,-0.23966 -0.47978,-0.52602 -0.47978,-0.88359 l 0,-1.95906 10.20765,0 z"/>
    <path fill="#ffffff"
       d="m 83.2559,17.83708 c 0,0.83838 -0.49936,1.24563 -1.49739,1.24563 l -8.35336,0 0,-8.93157 8.35336,0 c 0.37491,0 0.69941,0.12026 1.02369,0.38444 0.32383,0.26247 0.4737,0.54968 0.4737,0.88507 l 0,6.41643 z m 1.44653,-9.074 C 83.82952,8.02086 82.85736,7.66116 81.75851,7.66116 l -11.07382,0 0,24.33884 2.72046,0 0,-10.40343 8.35336,0 c 1.17266,0 2.19568,-0.35885 3.01976,-1.05352 0.82206,-0.69467 1.22172,-1.60341 1.22172,-2.70597 l 0,-6.41643 c 0,-1.02942 -0.42374,-1.91535 -1.29756,-2.65757"/>
    <path fill="#ffffff"
       d="M 15.50411,0 C 6.94147,0 0,6.57698 0,14.69 c 0,8.11302 6.94147,14.69 15.50411,14.69 8.56264,0 15.50411,-6.57698 15.50411,-14.69 C 31.00822,6.57698 24.06675,0 15.50411,0"/>
    <path fill="#17bebb"
       d="m 24.08835,21.82788 -12.28992,0 c -1.34099,0 -2.48485,-0.40576 -3.42618,-1.19041 C 7.42913,19.85197 6.9444,18.82553 6.9444,17.57969 l 0,-9.80492 3.14106,0 0,9.67997 c 0,0.94776 0.57091,1.40746 1.71297,1.40746 l 12.28992,0 0,2.96568 z"/>
</svg>
