<?xml version="1.0" encoding="UTF-8"?>
<svg fill="none" xmlns="http://www.w3.org/2000/svg" viewBox="0 0 32 32">
  <path fill-rule="evenodd" clip-rule="evenodd" fill="#ffffff"
    d="M 16,0 C 7.1634286,0 0,7.1634286 0,16 0,24.836571 7.1634286,32 16,32 24.836571,32 32,24.836571 32,16 32,7.1634286 24.836571,0 16,0 Z m 0,30.285714 C 23.889771,30.285714 30.285714,23.889771 30.285714,16 30.285714,8.1102286 23.889771,1.7142857 16,1.7142857 8.1102286,1.7142857 1.7142857,8.1102286 1.7142857,16 1.7142857,23.889771 8.1102286,30.285714 16,30.285714 Z"/>
  <path fill-rule="evenodd" clip-rule="evenodd" fill="#ffffff"
    d="m 10.722914,17.833657 0,-8.1930856 -2.7403997,0 0,8.1525716 c 5.714e-4,1.521543 -0.059086,1.750971 0.2048571,2.515886 0.3097143,0.673142 0.6311429,1.193028 1.1982857,1.664971 1.1146289,1.011143 2.2830859,1.024686 4.4455999,1.024686 l 9.661029,0 5.7e-5,-2.689657 -9.671486,0.0091 C 12.562457,20.270229 11.805714,20.4464 11.2576,20.094629 11.052914,19.9512 10.767371,19.7368 10.728971,19.067657 c -0.01017,-0.177543 -0.0061,-0.934286 -0.0061,-1.234 z"/>
</svg>
