<?xml version="1.0" encoding="UTF-8"?>
<svg width="21px" height="21px" viewBox="0 0 21 21" version="1.1" xmlns="http://www.w3.org/2000/svg" xmlns:xlink="http://www.w3.org/1999/xlink">
    <!-- Generator: Sketch 61.1 (89650) - https://sketch.com -->
    <title>icon_dashboard</title>
    <desc>Created with Sketch.</desc>
    <g id="UI-Mocks" stroke="none" stroke-width="1" fill="none" fill-rule="evenodd">
        <g id="IDE-Workspace-Slideout" transform="translate(-1065.000000, -517.000000)" stroke="#4378F8" stroke-width="1.5999999">
            <g id="Group" transform="translate(1041.000000, 64.000000)">
                <g id="Items" transform="translate(11.000000, 91.000000)">
                    <g id="What's-New" transform="translate(14.000000, 360.000000)">
                        <path d="M0.799999952,3 L7.00599105,3 C7.44781882,3 7.805991,3.35817218 7.805991,3.79999995 L7.805991,12.062069 C7.805991,12.5038968 7.44781882,12.862069 7.00599105,12.862069 L0.799999952,12.862069 C0.358172179,12.862069 -5.69140056e-17,12.5038968 0,12.062069 L0,3.79999995 C-1.65130599e-16,3.35817218 0.358172179,3 0.799999952,3 Z M0.799999952,16 L7.00599105,16 C7.44781882,16 7.805991,16.3581722 7.805991,16.8 L7.805991,21.062069 C7.805991,21.5038968 7.44781882,21.862069 7.00599105,21.862069 L0.799999952,21.862069 C0.358172179,21.862069 5.43175212e-13,21.5038968 5.43121104e-13,21.062069 L5.43121104e-13,16.8 C5.43066995e-13,16.3581722 0.358172179,16 0.799999952,16 Z M11.8584878,3 L18.0644789,3 C18.5063067,3 18.8644789,3.35817218 18.8644789,3.79999995 L18.8644789,8.06206905 C18.8644789,8.50389682 18.5063067,8.862069 18.0644789,8.862069 L11.8584878,8.862069 C11.4166601,8.862069 11.0584879,8.50389682 11.0584879,8.06206905 L11.0584879,3.79999995 C11.0584879,3.35817218 11.4166601,3 11.8584878,3 Z M11.8,12.137931 L18.005991,12.137931 C18.4478188,12.137931 18.805991,12.4961032 18.805991,12.937931 L18.805991,21.2000001 C18.805991,21.6418279 18.4478188,22 18.005991,22 L11.8,22 C11.3581722,22 11,21.6418279 11,21.2000001 L11,12.937931 C11,12.4961032 11.3581722,12.137931 11.8,12.137931 Z" id="icon_dashboard"></path>
                    </g>
                </g>
            </g>
        </g>
    </g>
</svg>