<?xml version="1.0" encoding="UTF-8"?>
<svg width="23px" height="23px" viewBox="0 0 23 23" version="1.1" xmlns="http://www.w3.org/2000/svg" xmlns:xlink="http://www.w3.org/1999/xlink">
    <!-- Generator: Sketch 61.1 (89650) - https://sketch.com -->
    <title>icon_support</title>
    <desc>Created with Sketch.</desc>
    <g id="UI-Mocks" stroke="none" stroke-width="1" fill="none" fill-rule="evenodd">
        <g id="IDE-Workspace-Slideout" transform="translate(-1064.000000, -367.000000)">
            <g id="Group" transform="translate(1041.000000, 64.000000)">
                <g id="Items" transform="translate(11.000000, 91.000000)">
                    <g id="Support" transform="translate(13.000000, 210.000000)">
                        <g id="icon_support" transform="translate(0.000000, 3.000000)">
                            <path d="M10.3999994,0 C4.65919972,0 0,4.65919972 0,10.3999994 C0,16.140799 4.65919972,20.7999988 10.3999994,20.7999988 C16.140799,20.7999988 20.7999988,16.140799 20.7999988,10.3999994 C20.7999988,4.65919972 16.140799,0 10.3999994,0 L10.3999994,0 Z" id="Path" stroke="#4378F8" stroke-width="1.5999999"></path>
                            <polygon id="Path" fill="#4378F8" points="11.4399993 17.6799989 9.35999944 17.6799989 9.35999944 15.5999991 11.4399993 15.5999991"></polygon>
                            <path d="M13.5927992,9.61999943 L12.6567992,10.5767994 C11.9079993,11.3359993 11.4399993,11.9599993 11.4399993,13.5199992 L9.35999944,13.5199992 L9.35999944,12.9999992 C9.35999944,11.8559993 9.82799941,10.8159994 10.5767994,10.0567994 L11.8663993,8.74639948 C12.2511993,8.3719995 12.4799993,7.85199953 12.4799993,7.27999957 C12.4799993,6.13599963 11.5439993,5.19999969 10.3999994,5.19999969 C9.25599945,5.19999969 8.3199995,6.13599963 8.3199995,7.27999957 L6.23999963,7.27999957 C6.23999963,4.9815997 8.10159952,3.11999981 10.3999994,3.11999981 C12.6983992,3.11999981 14.5599991,4.9815997 14.5599991,7.27999957 C14.5599991,8.19519951 14.1855992,9.02719946 13.5927992,9.61999943 L13.5927992,9.61999943 Z" id="Path" fill="#4378F8"></path>
                        </g>
                    </g>
                </g>
            </g>
        </g>
    </g>
</svg>