<?xml version="1.0" encoding="UTF-8"?>
<svg width="24px" height="22px" viewBox="0 0 24 22" version="1.1" xmlns="http://www.w3.org/2000/svg" xmlns:xlink="http://www.w3.org/1999/xlink">
    <!-- Generator: Sketch 61.1 (89650) - https://sketch.com -->
    <title>icon_community</title>
    <desc>Created with Sketch.</desc>
    <g id="UI-Mocks" stroke="none" stroke-width="1" fill="none" fill-rule="evenodd">
        <g id="IDE-Workspace-Slideout" transform="translate(-1063.000000, -446.000000)" stroke="#4378F8" stroke-width="1.6">
            <g id="Group" transform="translate(1041.000000, 64.000000)">
                <g id="Items" transform="translate(11.000000, 91.000000)">
                    <g id="Community" transform="translate(12.000000, 290.000000)">
                        <g id="icon_community" transform="translate(0.000000, 2.000000)">
                            <path d="M4,10 C6.76142375,10 9,12.0147186 9,14.5 L9,21 M0,21 L0,14.5 C0,12.0147186 2.23857625,10 5,10 L5,10 M4.5,0 C6.43299662,0 8,1.56700338 8,3.5 C8,5.43299662 6.43299662,7 4.5,7 C2.56700338,7 1,5.43299662 1,3.5 C1,1.56700338 2.56700338,0 4.5,0 Z" id="Shape"></path>
                            <path d="M17,10 C19.7614237,10 22,12.0147186 22,14.5 L22,21 M13,21 L13,14.5 C13,12.0147186 15.2385763,10 18,10 L18,10 M17.5,0 C19.4329966,0 21,1.56700338 21,3.5 C21,5.43299662 19.4329966,7 17.5,7 C15.5670034,7 14,5.43299662 14,3.5 C14,1.56700338 15.5670034,0 17.5,0 Z" id="Shape"></path>
                        </g>
                    </g>
                </g>
            </g>
        </g>
    </g>
</svg>