<svg width="56" height="56" viewBox="0 0 56 56" fill="none" xmlns="http://www.w3.org/2000/svg">
<path fill-rule="evenodd" clip-rule="evenodd" d="M28 0C12.536 0 0 12.536 0 28C0 43.464 12.536 56 28 56C43.464 56 56 43.464 56 28C56 12.536 43.464 0 28 0ZM28 53C41.8071 53 53 41.8071 53 28C53 14.1929 41.8071 3 28 3C14.1929 3 3 14.1929 3 28C3 41.8071 14.1929 53 28 53Z" fill="white"/>
<path d="M18.7651 31.2089V16.871H13.9694V31.138C13.9704 33.8007 13.866 34.2022 14.3279 35.5408C14.8699 36.7188 15.4324 37.6286 16.4249 38.4545C18.3755 40.224 20.4203 40.2477 24.2047 40.2477H41.1115L41.1116 35.5408L24.1865 35.5568C21.9843 35.4729 20.66 35.7812 19.7008 35.1656C19.3426 34.9146 18.8429 34.5394 18.7757 33.3684C18.7579 33.0577 18.7651 31.7334 18.7651 31.2089Z" fill="white"/>
</svg>
